# xmcd CD database file generated by OrangeCD 6.4
#
# Track frame offsets:
#	150
#	16692
#	30258
#	45446
#	60998
#	78231
#	91219
#	104855
#	120766
#	137919
#	155934
#	171710
#	188767
#	204568
#	218073
#	233020
#	248186
#	264429
#	281709
#	295833
#	311348
#	326331
#	340663
#
# Disc length: 4762 seconds
#
# Revision: 2
# Processed by: cddbd v1.5.2PL0 Copyright (c) Steve Scherf et al.
# Submitted via: OrangeCD 6.4
#
DISCID=3b129817
DTITLE=Various Artist - Chrysalis Music 2010 Nashville Summer Country
DYEAR=2010
DGENRE=
TTITLE0=Jason Aldean - Don't Give Up On Me
TTITLE1=The Band Perry - Hip To My Heart
TTITLE2=Dierks Bentley - Feel That Fire
TTITLE3=Bekka Bramlet - What's On My Mind
TTITLE4=George Canyon - All Or Nothing
TTITLE5=Easton Corbin - A Little More Country Than You
TTITLE6=Dianna Corcoran - Wrong Girl
TTITLE7=Jessie Farrell - Nobody Says No
TTITLE8=Rascal Flatts - Unstopppable
TTITLE9=Fools For Rowan - Dead
TTITLE10=Jason Greeley - Around For A Reason
TTITLE11=Kree Harrison - American Rain
TTITLE12=Chris Janson - Til A Woman Comes Along
TTITLE13=Joey and Rory - Cheater, Cheater
TTITLE14=Kingbilly - Surrender
TTITLE15=Lady Antebellum - Love's Lookin' Good On You
TTITLE16=Mind Mccready - I Want A Man
TTITLE17=Misty Lee Olsen - The Story Of A Girl
TTITLE18=Jake Owen - Eight Second Ride
TTITLE19=Kellie Pickler - Makin' Me Fall In Love Again
TTITLE20=Sara Storer - Calling Me Home
TTITLE21=George Strait - I Gotta Get To You
TTITLE22=Taylor Swift - A Perfectly Good Heart
EXTD=
EXTT0=
EXTT1=
EXTT2=
EXTT3=
EXTT4=
EXTT5=
EXTT6=
EXTT7=
EXTT8=
EXTT9=
EXTT10=
EXTT11=
EXTT12=
EXTT13=
EXTT14=
EXTT15=
EXTT16=
EXTT17=
EXTT18=
EXTT19=
EXTT20=
EXTT21=
EXTT22=
PLAYORDER=
